<svg width="19" height="19" viewBox="0 0 19 19" fill="none" xmlns="http://www.w3.org/2000/svg">
<path fill-rule="evenodd" clip-rule="evenodd" d="M12.586 1C12.9611 0.62506 13.4697 0.414429 14 0.414429C14.5303 0.414429 15.0389 0.62506 15.414 1L18 3.586C18.3749 3.96106 18.5856 4.46967 18.5856 5C18.5856 5.53033 18.3749 6.03895 18 6.414L16.414 8L11 2.586L12.586 1ZM9.586 4L0.586 13C0.210901 13.375 0.000113275 13.8836 0 14.414V17C0 17.5304 0.210714 18.0391 0.585786 18.4142C0.960859 18.7893 1.46957 19 2 19H4.586C5.11639 18.9999 5.62501 18.7891 6 18.414L15 9.414L9.586 4Z" fill="#242424"/>
</svg>
