<svg width="45" height="45" viewBox="0 0 45 45" fill="none" xmlns="http://www.w3.org/2000/svg">
<path d="M24.7312 11.25H12.7312C12.2437 11.25 11.775 11.2687 11.325 11.325C6.28125 11.7562 3.75 14.7375 3.75 20.2312V27.7313C3.75 35.2313 6.75 36.7125 12.7312 36.7125H13.4812C13.8938 36.7125 14.4375 36.9937 14.6812 37.3125L16.9312 40.3125C17.925 41.6437 19.5375 41.6437 20.5312 40.3125L22.7812 37.3125C23.0625 36.9375 23.5125 36.7125 23.9813 36.7125H24.7312C30.225 36.7125 33.2063 34.2 33.6375 29.1375C33.6938 28.6875 33.7125 28.2188 33.7125 27.7313V20.2312C33.7125 14.25 30.7125 11.25 24.7312 11.25ZM12.1875 26.25C11.1375 26.25 10.3125 25.4062 10.3125 24.375C10.3125 23.3438 11.1562 22.5 12.1875 22.5C13.2188 22.5 14.0625 23.3438 14.0625 24.375C14.0625 25.4062 13.2188 26.25 12.1875 26.25ZM18.7312 26.25C17.6812 26.25 16.8562 25.4062 16.8562 24.375C16.8562 23.3438 17.7 22.5 18.7312 22.5C19.7625 22.5 20.6062 23.3438 20.6062 24.375C20.6062 25.4062 19.7812 26.25 18.7312 26.25ZM25.2937 26.25C24.2437 26.25 23.4187 25.4062 23.4187 24.375C23.4187 23.3438 24.2625 22.5 25.2937 22.5C26.325 22.5 27.1687 23.3438 27.1687 24.375C27.1687 25.4062 26.325 26.25 25.2937 26.25Z" fill="white"/>
<path d="M41.2125 12.7312V20.2313C41.2125 23.9813 40.05 26.5312 37.725 27.9375C37.1625 28.275 36.5062 27.825 36.5062 27.1687L36.525 20.2313C36.525 12.7312 32.2312 8.4375 24.7312 8.4375L13.3125 8.45625C12.6562 8.45625 12.2062 7.8 12.5437 7.2375C13.95 4.9125 16.5 3.75 20.2312 3.75H32.2312C38.2125 3.75 41.2125 6.75 41.2125 12.7312Z" fill="white"/>
</svg>
