<svg width="45" height="45" viewBox="0 0 45 45" fill="none" xmlns="http://www.w3.org/2000/svg">
<path d="M17.8125 36.5625V33.75H8.4375C7.40625 33.75 6.46875 33.3375 5.79375 32.6437C5.1 31.9688 4.6875 31.0312 4.6875 30C4.6875 28.0688 6.1875 26.4563 8.08125 26.2688C8.19375 26.25 8.30625 26.25 8.4375 26.25H36.5625C36.6937 26.25 36.8063 26.25 36.9188 26.2688C37.8188 26.3438 38.6063 26.7375 39.2062 27.3563C39.975 28.1063 40.3875 29.175 40.2938 30.3375C40.125 32.3062 38.3438 33.75 36.3562 33.75H27.1875V36.5625C27.1875 37.8057 26.6936 38.998 25.8146 39.8771C24.9355 40.7561 23.7432 41.25 22.5 41.25C21.2568 41.25 20.0645 40.7561 19.1854 39.8771C18.3064 38.998 17.8125 37.8057 17.8125 36.5625ZM32.2313 3.75H24.8438C24.3188 3.75 23.9062 4.1625 23.9062 4.6875V7.5C23.9062 8.26875 23.2687 8.90625 22.5 8.90625C22.3312 8.90625 22.1812 8.86875 22.0312 8.8125C21.4875 8.625 21.0938 8.1 21.0938 7.5V4.6875C21.0938 4.1625 20.6812 3.75 20.1562 3.75H17.325C16.8 3.75 16.3875 4.1625 16.3875 4.6875V13.125C16.3875 13.8938 15.75 14.5312 14.9812 14.5312C14.2125 14.5312 13.575 13.8938 13.575 13.125V4.6875C13.575 4.18125 13.2 3.7875 12.6938 3.75H12.6375C11.8626 3.76711 11.0996 3.94461 10.3967 4.27132C9.69382 4.59802 9.06625 5.06684 8.5536 5.6482C8.04094 6.22956 7.65432 6.91085 7.41812 7.6491C7.18192 8.38734 7.10127 9.16653 7.18125 9.9375L7.875 22.5938C7.93125 23.5875 8.75625 24.375 9.75 24.375H35.25C36.2437 24.375 37.0687 23.5875 37.125 22.5938L37.8187 9.9375C38.1562 6.61875 35.55 3.75 32.2313 3.75Z" fill="white"/>
</svg>
