<svg width="45" height="45" viewBox="0 0 45 45" fill="none" xmlns="http://www.w3.org/2000/svg">
<path d="M16.875 3.75C11.9625 3.75 7.96874 7.74375 7.96874 12.6562C7.96874 17.475 11.7375 21.375 16.65 21.5437C16.8 21.525 16.95 21.525 17.0625 21.5437H17.1937C19.4988 21.4668 21.6836 20.4965 23.2862 18.8379C24.8887 17.1794 25.7835 14.9626 25.7812 12.6562C25.7812 7.74375 21.7875 3.75 16.875 3.75ZM26.4 26.5294C21.1687 23.0419 12.6375 23.0419 7.36874 26.5294C4.98749 28.1231 3.67499 30.2794 3.67499 32.5856C3.67499 34.8919 4.98749 37.0294 7.34999 38.6044C9.97499 40.3669 13.425 41.2481 16.875 41.2481C20.325 41.2481 23.775 40.3669 26.4 38.6044C28.7625 37.0106 30.075 34.8731 30.075 32.5481C30.0562 30.2419 28.7625 28.1044 26.4 26.5294ZM37.4812 13.7587C37.7812 17.3962 35.1937 20.5837 31.6125 21.015H31.5187C31.4062 21.015 31.2937 21.015 31.2 21.0525C29.3812 21.1462 27.7125 20.565 26.4562 19.4962C28.3875 17.7712 29.4937 15.1838 29.2687 12.3713C29.1401 10.9088 28.6434 9.50261 27.825 8.28375C28.8075 7.80578 29.8915 7.574 30.9835 7.60841C32.0755 7.64283 33.1428 7.9424 34.0933 8.48129C35.0437 9.02017 35.8487 9.78219 36.439 10.7016C37.0292 11.621 37.3869 12.6703 37.4812 13.7587Z" fill="white"/>
<path d="M41.2275 31.1063C41.0775 32.925 39.915 34.5 37.965 35.5688C36.09 36.6 33.7275 37.0875 31.3837 37.0313C32.7337 35.8125 33.5212 34.2938 33.6712 32.6813C33.8587 30.3563 32.7525 28.125 30.54 26.3438C29.2837 25.35 27.8212 24.5625 26.2275 23.9813C30.3712 22.7813 35.5837 23.5875 38.79 26.175C40.515 27.5625 41.3962 29.3063 41.2275 31.1063Z" fill="white"/>
</svg>
