<svg width="45" height="45" viewBox="0 0 45 45" fill="none" xmlns="http://www.w3.org/2000/svg">
<g clip-path="url(#clip0_62_133)">
<path d="M6.25554 31.091C4.38914 28.5206 4.57578 21.3603 7.0021 20.9931C6.0689 8.69216 12.7879 4.10224 15.4009 2.08268C18.0139 0.0631114 23.4264 -0.487679 27.1592 0.430305C30.892 1.34829 34.9981 5.75461 36.4912 8.14137C37.6857 10.0508 38.6065 14.6897 38.9176 16.7704C38.9798 21.3603 39.0669 30.8339 38.9176 32.0089C38.7309 33.4777 38.3576 34.3957 37.0512 37.3333C35.7447 40.2708 32.1985 43.2084 30.1455 44.3099C28.503 45.1912 25.4795 45.0443 24.173 44.8607C22.8665 44.6159 19.4697 43.649 16.3341 41.7396C13.1986 39.8302 11.7925 35.3137 11.4815 33.2941C10.9215 34.2121 8.12194 33.6613 6.25554 31.091Z" fill="white"/>
<path d="M10.3616 23.5635C10.0506 22.5843 8.94316 20.6994 7.0021 20.9931M7.0021 20.9931C4.57578 21.3603 4.38914 28.5206 6.25554 31.091C8.12194 33.6613 10.9215 34.2121 11.4815 33.2941C11.7925 35.3137 13.1985 39.8302 16.3341 41.7396C19.4697 43.649 22.8665 44.6159 24.173 44.8607C25.4795 45.0443 28.503 45.1912 30.1455 44.3099C32.1985 43.2084 35.7447 40.2708 37.0512 37.3333C38.3576 34.3957 38.7309 33.4777 38.9176 32.009C39.0669 30.8339 38.9798 21.3603 38.9176 16.7704C38.6065 14.6897 37.6857 10.0508 36.4912 8.14137C34.9981 5.75461 30.892 1.34829 27.1592 0.430305C23.4264 -0.487679 18.0139 0.0631114 15.4009 2.08268C12.7879 4.10224 6.0689 8.69216 7.0021 20.9931ZM6.62882 25.2159C6.87767 23.9307 7.674 22.1314 8.8685 25.2159C9.11735 25.8279 9.57773 27.2722 9.42842 28.1534H8.12194C7.87308 28.8878 7.674 30.43 8.8685 30.7238C10.063 31.0175 10.1128 30.2342 9.98834 29.8058M18.3871 19.5244C19.6936 18.79 23.0531 17.6884 26.0394 19.1572C26.226 20.014 26.0767 21.8744 23.9863 22.4619C21.3734 23.1963 18.3871 21.9111 18.3871 19.5244ZM30.7054 19.8916C31.1409 19.402 32.3105 18.3861 33.505 18.2392C34.9981 18.0556 36.4912 18.4228 37.0512 19.1572C37.1134 20.0752 36.7525 22.0213 34.8115 22.4619C32.3852 23.0127 30.7054 21.5439 30.7054 19.8916Z" stroke="#313131" stroke-width="0.5"/>
<path d="M29.075 21C29.1148 22.6479 29.2422 26.0901 29.4333 26.6761C29.6721 27.4085 30.5082 28.8732 29.5527 29.2394" stroke="#313131" stroke-width="0.5"/>
<path d="M28.6901 33.5248C29.0076 33.5262 29.2306 33.5196 29.5171 33.4199C29.5485 33.409 29.5939 33.3513 29.5709 33.3156C29.4586 33.1412 28.9303 33.2338 28.7781 33.249C28.4881 33.2779 28.2191 33.3097 27.9257 33.3084C27.8832 33.3082 27.2941 33.2524 27.2804 33.345C27.2435 33.5959 28.7934 33.6673 29.0091 33.6682" stroke="#313131" stroke-width="0.5" stroke-linecap="round"/>
<path d="M19.3897 16.952C21.8137 16.6027 24.6154 16.5641 27.2308 16.5641" stroke="#313131" stroke-width="0.5" stroke-linecap="round"/>
<path d="M30.889 16.5788C32.3485 16.4108 33.883 16.0972 35.3562 16.076C35.947 16.0674 36.3846 16.0739 37.0551 16.0739" stroke="#313131" stroke-width="0.5" stroke-linecap="round"/>
<path d="M22.9988 20.0681C23.516 20.1935 23.1641 19.8896 23.0495 20.1187" stroke="#313131" stroke-width="0.5" stroke-linecap="round"/>
<path d="M34.289 19.9669C33.8588 19.9669 33.9527 20.135 34.289 19.9669" stroke="#313131" stroke-width="0.5" stroke-linecap="round"/>
<path d="M28.0616 28.7762C28.1879 28.8293 28.3332 28.8478 28.4667 28.8774" stroke="#313131" stroke-width="0.5" stroke-linecap="round"/>
</g>
<defs>
<clipPath id="clip0_62_133">
<rect width="45" height="45" fill="white"/>
</clipPath>
</defs>
</svg>
