<svg width="45" height="45" viewBox="0 0 45 45" fill="none" xmlns="http://www.w3.org/2000/svg">
<path d="M15.5438 11.7937C14.7563 11.7937 14.1375 11.1562 14.1375 10.3875V5.15625C14.1375 4.78329 14.2857 4.4256 14.5494 4.16188C14.8131 3.89816 15.1708 3.75 15.5438 3.75C15.9167 3.75 16.2744 3.89816 16.5381 4.16188C16.8019 4.4256 16.95 4.78329 16.95 5.15625V10.3688C16.95 11.1563 16.3313 11.7937 15.5438 11.7937ZM29.4563 11.7937C28.6688 11.7937 28.05 11.1562 28.05 10.3875V5.15625C28.05 4.78329 28.1982 4.4256 28.4619 4.16188C28.7256 3.89816 29.0833 3.75 29.4563 3.75C29.8292 3.75 30.1869 3.89816 30.4506 4.16188C30.7144 4.4256 30.8625 4.78329 30.8625 5.15625V10.3688C30.8625 11.1563 30.2438 11.7937 29.4563 11.7937ZM40.3125 29.6625C40.3125 29.9438 40.2188 30.225 39.975 30.4688L29.6438 40.875C29.4 41.1375 29.0813 41.25 28.7625 41.25C28.1438 41.25 27.5438 40.7625 27.5438 40.05V33.4875C27.5438 30.75 29.8688 28.4812 32.7188 28.4812C34.5 28.4625 36.975 28.4625 39.0938 28.4625C39.825 28.4625 40.3125 29.0437 40.3125 29.6625Z" fill="white"/>
<path d="M40.3125 29.6625C40.3125 29.9437 40.2188 30.225 39.975 30.4687L29.6438 40.875C29.4 41.1375 29.0813 41.25 28.7625 41.25C28.1438 41.25 27.5438 40.7625 27.5438 40.05V33.4875C27.5438 30.75 29.8688 28.4812 32.7188 28.4812C34.5 28.4625 36.975 28.4625 39.0938 28.4625C39.825 28.4625 40.3125 29.0437 40.3125 29.6625Z" fill="white"/>
<path d="M36.6937 8.4375C35.4562 7.51875 33.675 8.4 33.675 9.95625V10.1437C33.675 12.3375 32.1 14.3625 29.9062 14.5875C27.375 14.85 25.2375 12.8625 25.2375 10.3875V8.4375C25.2375 7.40625 24.3937 6.5625 23.3625 6.5625H21.6375C20.6062 6.5625 19.7625 7.40625 19.7625 8.4375V10.1437C19.7625 11.7937 18.8813 13.3313 17.5125 14.0813C17.4375 14.1375 17.3625 14.175 17.2875 14.2125C17.2688 14.2125 17.2687 14.2313 17.25 14.2313C17.1187 14.2875 16.9875 14.3437 16.8375 14.4C16.8 14.4187 16.7625 14.4187 16.725 14.4375C16.5 14.5125 16.2562 14.5688 15.9937 14.5875H15.975C15.6938 14.625 15.3938 14.625 15.1125 14.5875H15.0938C14.8313 14.5688 14.5875 14.5125 14.3625 14.4375C14.175 14.3812 13.9875 14.3063 13.8 14.2125C13.0619 13.8823 12.4353 13.3453 11.9961 12.6665C11.5568 11.9877 11.3237 11.1961 11.325 10.3875V9.95625C11.325 8.5125 9.7875 7.65 8.56875 8.26875C8.55 8.2875 8.53125 8.2875 8.5125 8.30625H8.49375C8.3625 8.4 8.25 8.49375 8.11875 8.5875C7.76868 8.866 7.44254 9.17332 7.14375 9.50625C6.99375 9.65625 6.8625 9.80625 6.73125 9.975C6.6375 10.0875 6.525 10.2 6.45 10.3313C6.35625 10.4438 6.28125 10.575 6.20625 10.6875C6.01579 10.9617 5.84655 11.25 5.7 11.55C5.6625 11.5875 5.64375 11.6063 5.64375 11.6438C5.53125 11.8688 5.41875 12.0938 5.34375 12.3375C5.2875 12.4313 5.26875 12.5062 5.23125 12.6C5.19375 12.675 5.175 12.7687 5.1375 12.8438C5.08125 13.0312 5.025 13.2375 4.96875 13.4438C4.89375 13.7063 4.8375 13.9875 4.8 14.2688C4.73183 14.7408 4.69425 15.2168 4.6875 15.6937V32.1187C4.6875 33.3179 4.92369 34.5053 5.38257 35.6131C5.84146 36.721 6.51407 37.7276 7.36198 38.5755C9.07442 40.288 11.397 41.25 13.8187 41.25H22.8562C23.8875 41.25 24.7312 40.4062 24.7312 39.375V33.4875C24.7312 29.175 28.3125 25.6687 32.7188 25.6687C33.7125 25.65 36.1313 25.65 38.4375 25.65C39.4688 25.65 40.3125 24.8063 40.3125 23.775V15.6937C40.3125 12.7125 38.8875 10.1063 36.6937 8.4375ZM20.8687 29.8312C20.7 30.3937 20.175 30.7875 19.5563 30.7875H12.7312C12.6375 30.7875 12.5625 30.7875 12.4875 30.75C12.1604 30.7022 11.862 30.5368 11.6481 30.2849C11.4341 30.033 11.3192 29.7117 11.325 29.3813C11.325 28.5938 11.9437 27.9562 12.7312 27.9562H19.5563C20.325 27.9562 20.9625 28.5938 20.9625 29.3813C20.9625 29.5312 20.9438 29.7 20.8687 29.8312ZM26.0812 22.875C25.9125 23.4375 25.3875 23.8312 24.7687 23.8312H12.7312C12.6375 23.8312 12.5625 23.8312 12.4875 23.7937C12.1604 23.7459 11.862 23.5806 11.6481 23.3287C11.4341 23.0767 11.3192 22.7555 11.325 22.425C11.325 21.6375 11.9437 21 12.7312 21H24.7687C25.5562 21 26.175 21.6375 26.175 22.425C26.175 22.575 26.1562 22.7437 26.0812 22.875Z" fill="white"/>
</svg>
