<svg width="56" height="11" viewBox="0 0 56 11" fill="none" xmlns="http://www.w3.org/2000/svg">
<path d="M0.898393 10L0.898393 0.545454H2.89733V4.44638H6.95521V0.545454L8.94953 0.545454V10H6.95521V6.09446H2.89733V10H0.898393ZM13.7645 10.1385C13.0474 10.1385 12.4273 9.98615 11.9041 9.68146C11.384 9.3737 10.9823 8.9459 10.6992 8.39808C10.416 7.84718 10.2745 7.20857 10.2745 6.48224C10.2745 5.74976 10.416 5.10961 10.6992 4.56179C10.9823 4.01089 11.384 3.5831 11.9041 3.27841C12.4273 2.97064 13.0474 2.81676 13.7645 2.81676C14.4816 2.81676 15.1002 2.97064 15.6203 3.27841C16.1435 3.5831 16.5467 4.01089 16.8299 4.56179C17.113 5.10961 17.2546 5.74976 17.2546 6.48224C17.2546 7.20857 17.113 7.84718 16.8299 8.39808C16.5467 8.9459 16.1435 9.3737 15.6203 9.68146C15.1002 9.98615 14.4816 10.1385 13.7645 10.1385ZM13.7737 8.61506C14.1 8.61506 14.3724 8.52273 14.5909 8.33807C14.8094 8.15033 14.974 7.89489 15.0848 7.57173C15.1987 7.24858 15.2556 6.8808 15.2556 6.46839C15.2556 6.05599 15.1987 5.68821 15.0848 5.36506C14.974 5.0419 14.8094 4.78646 14.5909 4.59872C14.3724 4.41098 14.1 4.31712 13.7737 4.31712C13.4444 4.31712 13.1675 4.41098 12.9428 4.59872C12.7212 4.78646 12.5535 5.0419 12.4396 5.36506C12.3288 5.68821 12.2734 6.05599 12.2734 6.46839C12.2734 6.8808 12.3288 7.24858 12.4396 7.57173C12.5535 7.89489 12.7212 8.15033 12.9428 8.33807C13.1675 8.52273 13.4444 8.61506 13.7737 8.61506ZM18.5333 10V2.90909H21.5571C22.4312 2.90909 23.1221 3.07528 23.6299 3.40767C24.1377 3.74006 24.3916 4.21248 24.3916 4.82493C24.3916 5.20964 24.2485 5.52971 23.9623 5.78516C23.6761 6.0406 23.2791 6.21295 22.7713 6.3022C23.196 6.33298 23.5576 6.42992 23.8561 6.59304C24.1577 6.75308 24.387 6.96082 24.544 7.21626C24.704 7.47171 24.784 7.75485 24.784 8.0657C24.784 8.46887 24.6763 8.8151 24.4609 9.1044C24.2485 9.3937 23.9362 9.61529 23.5237 9.76918C23.1144 9.92306 22.6143 10 22.0234 10H18.5333ZM20.3661 8.52734H22.0234C22.2973 8.52734 22.5112 8.46271 22.6651 8.33345C22.822 8.20111 22.9005 8.02107 22.9005 7.79332C22.9005 7.54096 22.822 7.34245 22.6651 7.1978C22.5112 7.05315 22.2973 6.98082 22.0234 6.98082H20.3661V8.52734ZM20.3661 5.8267H21.5987C21.7956 5.8267 21.9634 5.79901 22.1019 5.74361C22.2434 5.68513 22.3512 5.60204 22.425 5.49432C22.502 5.3866 22.5404 5.25888 22.5404 5.11115C22.5404 4.89264 22.4527 4.72183 22.2773 4.59872C22.1019 4.47562 21.8618 4.41406 21.5571 4.41406H20.3661V5.8267ZM29.2274 10.1385C28.5103 10.1385 27.8902 9.98615 27.367 9.68146C26.8468 9.3737 26.4452 8.9459 26.1621 8.39808C25.8789 7.84718 25.7373 7.20857 25.7373 6.48224C25.7373 5.74976 25.8789 5.10961 26.1621 4.56179C26.4452 4.01089 26.8468 3.5831 27.367 3.27841C27.8902 2.97064 28.5103 2.81676 29.2274 2.81676C29.9445 2.81676 30.5631 2.97064 31.0832 3.27841C31.6064 3.5831 32.0096 4.01089 32.2927 4.56179C32.5759 5.10961 32.7175 5.74976 32.7175 6.48224C32.7175 7.20857 32.5759 7.84718 32.2927 8.39808C32.0096 8.9459 31.6064 9.3737 31.0832 9.68146C30.5631 9.98615 29.9445 10.1385 29.2274 10.1385ZM29.2366 8.61506C29.5629 8.61506 29.8352 8.52273 30.0538 8.33807C30.2723 8.15033 30.4369 7.89489 30.5477 7.57173C30.6616 7.24858 30.7185 6.8808 30.7185 6.46839C30.7185 6.05599 30.6616 5.68821 30.5477 5.36506C30.4369 5.0419 30.2723 4.78646 30.0538 4.59872C29.8352 4.41098 29.5629 4.31712 29.2366 4.31712C28.9073 4.31712 28.6303 4.41098 28.4057 4.59872C28.1841 4.78646 28.0164 5.0419 27.9025 5.36506C27.7917 5.68821 27.7363 6.05599 27.7363 6.46839C27.7363 6.8808 27.7917 7.24858 27.9025 7.57173C28.0164 7.89489 28.1841 8.15033 28.4057 8.33807C28.6303 8.52273 28.9073 8.61506 29.2366 8.61506ZM37.2001 10.1385C36.4737 10.1385 35.849 9.98461 35.3258 9.67685C34.8056 9.366 34.4056 8.93513 34.1255 8.38423C33.8485 7.83333 33.71 7.19934 33.71 6.48224C33.71 5.75592 33.85 5.11884 34.1301 4.57102C34.4132 4.02012 34.8149 3.59079 35.335 3.28303C35.8551 2.97218 36.4737 2.81676 37.1908 2.81676C37.8094 2.81676 38.3511 2.9291 38.8158 3.15376C39.2806 3.37843 39.6483 3.69389 39.9192 4.10014C40.19 4.50639 40.3393 4.98343 40.367 5.53125H38.5111C38.4588 5.17732 38.3203 4.89264 38.0957 4.6772C37.8741 4.45869 37.5832 4.34943 37.2231 4.34943C36.9185 4.34943 36.6522 4.43253 36.4245 4.59872C36.1998 4.76184 36.0244 5.00036 35.8982 5.31428C35.772 5.6282 35.7089 6.00829 35.7089 6.45455C35.7089 6.90696 35.7705 7.29167 35.8936 7.60866C36.0198 7.92566 36.1967 8.16726 36.4245 8.33345C36.6522 8.49964 36.9185 8.58274 37.2231 8.58274C37.4478 8.58274 37.6494 8.53658 37.8279 8.44425C38.0095 8.35192 38.1588 8.21804 38.2757 8.04261C38.3957 7.86411 38.4742 7.65021 38.5111 7.40092H40.367C40.3362 7.94259 40.1885 8.41963 39.9238 8.83203C39.6622 9.24136 39.3006 9.56143 38.8389 9.79226C38.3773 10.0231 37.831 10.1385 37.2001 10.1385ZM41.1425 4.45561V2.90909H47.5687V4.45561H45.2835V10H43.4092V4.45561H41.1425ZM50.6398 7.40554L53.1927 2.90909H55.1316V10H53.2573V5.4897L50.7136 10H48.7609V2.90909H50.6398V7.40554Z" fill="white"/>
</svg>
